<?xml version="1.0" encoding="UTF-8"?>
<svg xmlns="http://www.w3.org/2000/svg" xmlns:xlink="http://www.w3.org/1999/xlink" width="15px" height="15px" viewBox="0 0 15 15" version="1.1">
<g id="surface1">
<path style=" stroke:none;fill-rule:nonzero;fill:rgb(0%,0%,0%);fill-opacity:1;" d="M 11.875 0 L 3.125 0 C 1.398438 0 0 1.398438 0 3.125 L 0 11.875 C 0 13.601562 1.398438 15 3.125 15 L 11.875 15 C 13.601562 15 15 13.601562 15 11.875 L 15 3.125 C 15 1.398438 13.601562 0 11.875 0 Z M 5 11.875 L 3.125 11.875 L 3.125 5 L 5 5 Z M 4.0625 4.207031 C 3.457031 4.207031 2.96875 3.714844 2.96875 3.105469 C 2.96875 2.496094 3.457031 2.003906 4.0625 2.003906 C 4.667969 2.003906 5.15625 2.496094 5.15625 3.105469 C 5.15625 3.714844 4.667969 4.207031 4.0625 4.207031 Z M 12.5 11.875 L 10.625 11.875 L 10.625 8.371094 C 10.625 6.265625 8.125 6.425781 8.125 8.371094 L 8.125 11.875 L 6.25 11.875 L 6.25 5 L 8.125 5 L 8.125 6.101562 C 8.996094 4.488281 12.5 4.367188 12.5 7.652344 Z M 12.5 11.875 "/>
</g>
</svg>
